<svg width="79" height="76" viewBox="0 0 79 76" fill="none" xmlns="http://www.w3.org/2000/svg">
<path d="M64.676 62.3559L62.2663 59.7723L62.2597 59.7785L64.676 62.3559ZM14.34 62.3559L16.7599 59.7819C16.7553 59.7776 16.7508 59.7733 16.7462 59.7691L14.34 62.3559ZM3.79617 33.7615L7.30087 34.2073L7.30193 34.1987L3.79617 33.7615ZM75.2016 33.781L71.6953 34.2136L71.6971 34.2274L75.2016 33.781ZM75.2016 33.8542L76.7719 37.0189C78.116 36.352 78.8922 34.909 78.7078 33.4199L75.2016 33.8542ZM3.79617 33.8542L0.285074 33.4621C0.120498 34.936 0.893907 36.3557 2.22145 37.0167L3.79617 33.8542ZM40.1898 3.54303L40.1065 7.07496L40.1898 3.54303ZM64.676 62.3559L67.0874 64.9379C67.9426 64.1392 68.3469 62.9688 68.1669 61.8125L64.676 62.3559ZM14.34 62.3559L10.8482 61.8185C10.6707 62.9712 11.0737 64.1373 11.925 64.9345L14.34 62.3559ZM71.9342 37.8628C71.9342 46.4107 68.2604 54.1815 62.2663 59.7723L67.0857 64.9394C74.4178 58.1007 79.0001 48.4962 79.0001 37.8628H71.9342ZM62.2597 59.7785C56.4123 65.2604 48.3948 68.6497 39.4989 68.6497V75.7155C50.2154 75.7155 59.954 71.6254 67.0923 64.9333L62.2597 59.7785ZM39.4989 68.6497C30.6193 68.6497 22.5861 65.2592 16.7599 59.7819L11.9201 64.9299C19.0432 71.6265 28.8023 75.7155 39.4989 75.7155V68.6497ZM16.7462 59.7691C10.7373 54.1797 7.06584 46.4107 7.06584 37.8628H0C0 48.4962 4.58021 58.1026 11.9337 64.9427L16.7462 59.7691ZM7.06584 37.8628C7.06584 36.6277 7.14839 35.406 7.30086 34.2072L0.291488 33.3157C0.103544 34.7934 0 36.3132 0 37.8628H7.06584ZM7.30193 34.1987C9.19028 19.0578 22.7732 7.07595 39.4989 7.07595V0.0101111C19.4234 0.0101111 2.6459 14.4378 0.290414 33.3243L7.30193 34.1987ZM39.4989 7.07595C56.2461 7.07595 69.8255 19.058 71.6953 34.2136L78.708 33.3484C76.3748 14.4376 59.5937 0.0101111 39.4989 0.0101111V7.07595ZM71.6971 34.2274C71.8502 35.4295 71.9342 36.6332 71.9342 37.8628H79.0001C79.0001 36.3076 78.8935 34.8046 78.7062 33.3345L71.6971 34.2274ZM73.6313 30.6894C64.1572 35.3903 53.1653 38.2189 40.1898 38.2189V45.2847C54.2426 45.2847 66.3107 42.2096 76.7719 37.0189L73.6313 30.6894ZM40.1898 38.2189C27.1464 38.2189 14.7876 35.3804 5.37089 30.6916L2.22145 37.0167C12.7401 42.2542 26.2004 45.2847 40.1898 45.2847V38.2189ZM7.30727 34.2462C9.03932 18.7349 23.5985 6.68554 40.1065 7.07496L40.2732 0.0110937C20.4548 -0.456424 2.46145 13.9717 0.285074 33.4621L7.30727 34.2462ZM40.1065 7.07496C56.6542 7.46533 69.811 19.0725 71.6955 34.2884L78.7078 33.4199C76.3602 14.4649 60.0519 0.477675 40.2732 0.0110937L40.1065 7.07496ZM62.2646 59.7739C56.3658 65.2829 48.4568 68.6497 39.4989 68.6497V75.7155C50.289 75.7155 59.9108 71.6402 67.0874 64.9379L62.2646 59.7739ZM39.4989 68.6497C30.5575 68.6497 22.6325 65.2818 16.7549 59.7773L11.925 64.9345C19.0863 71.6414 28.7289 75.7155 39.4989 75.7155V68.6497ZM17.8318 62.8933C19.3421 53.0797 28.8309 45.2847 40.1898 45.2847V38.2189C25.8139 38.2189 12.9575 48.113 10.8482 61.8185L17.8318 62.8933ZM40.1898 45.2847C51.3038 45.2847 59.6211 52.8506 61.1851 62.8993L68.1669 61.8125C66.0702 48.342 54.8062 38.2189 40.1898 38.2189V45.2847Z" fill="#08B783"/>
</svg>
